Coordinates
version=1
nRows=16
nColumns=40
inDegrees=yes

Units are S.I. units (second, meters, Newtons, ...)
Angles are in degrees.

endheader
time	pelvis_tilt	pelvis_list	pelvis_rotation	pelvis_tx	pelvis_ty	pelvis_tz	hip_flexion_r	hip_adduction_r	hip_rotation_r	knee_angle_r	knee_angle_r_beta	ankle_angle_r	subtalar_angle_r	mtp_angle_r	hip_flexion_l	hip_adduction_l	hip_rotation_l	knee_angle_l	knee_angle_l_beta	ankle_angle_l	subtalar_angle_l	mtp_angle_l	lumbar_extension	lumbar_bending	lumbar_rotation	arm_flex_r	arm_add_r	arm_rot_r	elbow_flex_r	pro_sup_r	wrist_flex_r	wrist_dev_r	arm_flex_l	arm_add_l	arm_rot_l	elbow_flex_l	pro_sup_l	wrist_flex_l	wrist_dev_l
     56.41750000	     -5.34425785	     -3.00982287	      2.23819471	      1.02396659	      0.92543002	      0.41080141	      1.35349813	     -2.38544189	    -15.16854269	     26.92141405	     26.92141405	     13.76458080	     -1.80647158	    -11.30289961	     24.92952458	     -3.28178096	     -2.89298260	     23.65524507	     23.65524507	      7.88048456	    -11.20438275	      3.86256282	     -5.81951811	      6.04980433	      3.61101865	     17.63767773	    -15.95411199	     -7.48628689	     88.70948845	     44.99214691	      0.00000000	      0.00000000	      0.04195017	     -8.70251825	      1.05819522	     31.74720375	     46.31979703	      0.00000000	      0.00000000
     56.42942857	     -5.36119911	     -2.95628270	      2.02106166	      1.02370126	      0.92673703	      0.40850076	      2.98013410	     -3.04432541	    -14.38839638	     30.51424298	     30.51424298	     12.32673867	     -3.96377158	    -12.10903294	     24.11017111	     -3.20462371	     -3.38841269	     23.10754424	     23.10754424	      8.17904599	    -10.67927128	      3.52978601	     -5.91875608	      6.03865967	      3.73890714	     15.98528116	    -15.60890295	     -7.65184020	     85.83786824	     45.09244827	      0.00000000	      0.00000000	      1.03490097	     -8.75236645	      0.55205978	     33.14592867	     46.38087736	      0.00000000	      0.00000000
     56.44135714	     -5.34150810	     -2.90725204	      1.78451646	      1.02341410	      0.92774519	      0.40639808	      4.77139871	     -3.67643309	    -13.56134781	     34.39142164	     34.39142164	     10.78876660	     -6.14448089	    -12.59651734	     23.33211540	     -3.14354670	     -3.86645050	     22.71441122	     22.71441122	      8.49655396	    -10.22580715	      3.13925709	     -6.02292586	      6.00728545	      3.94040060	     14.32759222	    -15.36198667	     -7.67219289	     82.82722431	     45.18793637	      0.00000000	      0.00000000	      1.87873368	     -8.89271753	      0.16526732	     34.83073589	     46.42961136	      0.00000000	      0.00000000
     56.45328571	     -5.29440450	     -2.62190670	      1.60335287	      1.02288710	      0.92843800	      0.40417230	      6.72023891	     -4.63701988	    -12.91173800	     38.54691521	     38.54691521	      9.35208943	     -7.83930780	    -12.74016254	     22.52995876	     -2.80332376	     -4.39730241	     22.31022913	     22.31022913	      8.81184603	     -9.77323226	      2.90244326	     -6.25252847	      5.78756131	      3.97169646	     12.52933998	    -15.08747409	     -7.43481097	     80.84417321	     45.23761201	      0.00000000	      0.00000000	      3.10151602	     -9.01104532	     -0.01318588	     36.02697334	     46.46765640	      0.00000000	      0.00000000
     56.46521429	     -5.30252559	     -2.74527038	      1.41500914	      1.02230668	      0.92880819	      0.40247075	      8.77476030	     -4.83178588	    -11.81761235	     42.48474338	     42.48474338	      7.70374170	    -10.33984702	    -12.05228190	     21.96708870	     -2.93429154	     -4.72766960	     22.18835436	     22.18835436	      9.17953395	     -9.34179689	      2.35024284	     -6.28827943	      5.92835241	      4.14692034	     11.08546796	    -14.82609310	     -7.58523040	     77.00755415	     45.36213010	      0.00000000	      0.00000000	      3.86842644	     -9.17692564	     -0.28416077	     38.39243773	     46.50832184	      0.00000000	      0.00000000
     56.47714286	     -5.18917487	     -2.68916861	      1.25065940	      1.02161038	      0.92900187	      0.40075456	     10.83462154	     -5.26274631	    -10.89713828	     46.59054464	     46.59054464	      6.67702948	    -11.88672364	    -10.02853323	     21.32988135	     -2.89567717	     -5.18825298	     22.16072848	     22.16072848	      9.44448519	     -8.86233061	      1.54553886	     -6.50228181	      5.87694309	      3.29920696	     10.83133192	    -13.82816595	     -7.37686769	     72.05346127	     45.51067798	      0.00000000	      0.00000000	      3.70425761	     -9.85996075	     -0.60401952	     42.07413593	     46.53859042	      0.00000000	      0.00000000
     56.48907143	     -5.14226373	     -2.64463872	      1.13123855	      1.02073482	      0.92887230	      0.39904749	     13.01573281	     -5.64441184	    -10.07497431	     50.59157090	     50.59157090	      6.07258236	    -12.85704753	     -7.10917571	     20.84895486	     -2.81382854	     -5.40539743	     22.24437737	     22.24437737	      9.78146047	     -8.70001576	      0.99997953	     -6.64531916	      5.84991759	      2.84083624	      9.88556538	    -13.53757780	     -6.42966895	     68.16873559	     45.58882797	      0.00000000	      0.00000000	      4.11740916	    -10.34057216	     -1.00233953	     44.92962604	     46.58239269	      0.00000000	      0.00000000
     56.50100000	     -5.08959291	     -2.65269665	      1.04068995	      1.01973903	      0.92859005	      0.39740127	     15.16289067	     -5.89893724	     -9.32833369	     54.28099150	     54.28099150	      5.54578755	    -13.63975516	     -4.34003592	     20.45906250	     -2.78544172	     -5.56225971	     22.48896730	     22.48896730	     10.22337889	     -8.57068789	      0.59590407	     -6.79750697	      5.90143315	      2.65855373	      8.76065881	    -13.33978287	     -5.88649921	     64.51410157	     45.66722508	      0.00000000	      0.00000000	      4.94728122	    -10.68829947	     -1.34913986	     47.26113773	     46.62610638	      0.00000000	      0.00000000
     56.51292857	     -5.05435891	     -2.64933587	      0.96079347	      1.01867832	      0.92820470	      0.39576474	     17.21291435	     -6.12186842	     -8.67139174	     57.46173349	     57.46173349	      4.45425880	    -14.55094847	     -3.95008574	     20.09733711	     -2.71875800	     -5.63401413	     22.73566095	     22.73566095	     10.70354169	     -8.59142665	      0.31572842	     -6.95889235	      5.96052904	      2.86748009	      6.77805969	    -13.40195999	     -5.59613785	     62.68028189	     45.70717809	      0.00000000	      0.00000000	      6.38885878	    -10.81687337	     -1.55597177	     48.45152142	     46.67011857	      0.00000000	      0.00000000
     56.52485714	     -5.07710191	     -2.75863617	      0.89344032	      1.01749450	      0.92773840	      0.39419227	     19.26817940	     -6.14154782	     -8.08924358	     60.24094582	     60.24094582	      3.67134400	    -15.29037747	     -3.27321355	     19.88095195	     -2.77887590	     -5.63890494	     23.10744526	     23.10744526	     11.16550641	     -8.59763395	     -0.00394026	     -7.02456744	      6.19092566	      3.24068142	      4.89281799	    -13.53686608	     -5.35409983	     60.10798252	     45.77438855	      0.00000000	      0.00000000	      7.82800613	    -10.85555132	     -1.69415178	     50.04409198	     46.71173671	      0.00000000	      0.00000000
     56.53678571	     -5.06372882	     -3.10224395	      0.87687206	      1.01630157	      0.92746478	      0.39279411	     21.16278474	     -5.86444678	     -7.74832144	     62.54924749	     62.54924749	      3.48034250	    -15.62033005	     -1.57897952	     19.64349300	     -3.10151664	     -5.58485890	     23.47935382	     23.47935382	     11.66557639	     -8.49175425	     -0.34994038	     -7.12732651	      6.63889406	      3.44863792	      3.75153143	    -13.52850931	     -5.17121897	     55.56954641	     45.91042794	      0.00000000	      0.00000000	      8.87486294	    -11.02767317	     -1.63790308	     52.54600723	     46.74003311	      0.00000000	      0.00000000
     56.54871429	     -5.13473043	     -3.24668349	      0.81956586	      1.01509324	      0.92712966	      0.39138714	     23.10714095	     -5.80044772	     -7.41342728	     64.46912376	     64.46912376	      3.31797879	    -15.82490137	     -0.53475465	     19.42572322	     -3.19071638	     -5.57578582	     23.73832159	     23.73832159	     12.11932077	     -8.52745566	     -0.58995997	     -7.11169646	      6.85753961	      3.32890734	      2.50857806	    -13.36025442	     -4.88125202	     52.08847541	     46.00538784	      0.00000000	      0.00000000	      9.86727447	    -11.33636297	     -1.78307845	     54.56315332	     46.78263371	      0.00000000	      0.00000000
     56.56064286	     -5.12182725	     -3.42994255	      0.75410601	      1.01400713	      0.92712769	      0.39013734	     24.85794250	     -5.67600788	     -7.22765696	     65.93624586	     65.93624586	      3.67343860	    -15.75600447	      1.39441964	     19.00347048	     -3.31967589	     -5.54595941	     23.80593879	     23.80593879	     12.56928291	     -8.48646658	     -0.76501127	     -7.14532582	      7.13112027	      2.32653718	      2.82470613	    -12.72127529	     -4.44880956	     46.03368096	     46.17284519	      0.00000000	      0.00000000	      9.89658798	    -12.07634334	     -2.23277454	     57.59940841	     46.85873328	      0.00000000	      0.00000000
     56.57257143	     -5.17423347	     -3.59782518	      0.59848031	      1.01299060	      0.92721778	      0.38909991	     26.51101643	     -5.51956390	     -7.07894174	     66.75454326	     66.75454326	      3.49358271	    -15.92508288	      1.42870841	     18.57165270	     -3.43841436	     -5.53565679	     23.75491867	     23.75491867	     12.94424303	     -8.57957305	     -0.88512700	     -7.16278083	      7.41812304	      2.69853440	      0.86056661	    -12.92516976	     -4.22663390	     44.12108678	     46.21468526	      0.00000000	      0.00000000	     11.22133635	    -11.99095312	     -2.65518229	     59.06263537	     46.92419329	      0.00000000	      0.00000000
     56.58450000	     -5.11568478	     -3.73009384	      0.38127906	      1.01216371	      0.92775406	      0.38830947	     27.88249416	     -5.34786299	     -6.98629932	     67.01870434	     67.01870434	      3.40667839	    -16.07159393	      1.51174852	     17.87694438	     -3.53588403	     -5.64918911	     23.48002106	     23.48002106	     13.24813175	     -8.64228326	     -0.95852951	     -7.29448788	      7.63529513	      3.09447509	     -0.72636897	    -13.00495895	     -4.08896342	     41.35296912	     46.29289619	      0.00000000	      0.00000000	     12.34347768	    -11.93463034	     -3.05762672	     60.98077693	     46.99300611	      0.00000000	      0.00000000
     56.59642857	     -5.06142352	     -3.76387867	      0.10957444	      1.01148871	      0.92850683	      0.38783940	     29.13755686	     -5.22728278	     -6.88954964	     66.81214047	     66.81214047	      3.43389505	    -16.11897080	      1.56866373	     17.00397622	     -3.52329927	     -5.73475408	     22.89680015	     22.89680015	     13.40856689	     -8.74063742	     -1.20760198	     -7.40116554	      7.69987829	      2.21640525	     -0.20954196	    -12.39276156	     -4.52036178	     35.21711341	     46.51425062	      0.00000000	      0.00000000	     12.14950710	    -12.57251802	     -4.18707403	     64.26692236	     47.13820008	      0.00000000	      0.00000000
